HIERARCHY
ROOT Hips
{
	OFFSET 0.00000 0.00000 0.00000
	CHANNELS 6 Xposition Yposition Zposition Zrotation Yrotation Xrotation 
	JOINT LHipJoint
	{
		OFFSET 0 0 0
		CHANNELS 3 Zrotation Yrotation Xrotation
		JOINT LeftHip
		{
			OFFSET 1.32989 -1.57253 0.78074
			CHANNELS 3 Zrotation Yrotation Xrotation
			JOINT LeftKnee
			{
				OFFSET 2.24323 -6.16323 0.00000
				CHANNELS 3 Zrotation Yrotation Xrotation
				JOINT LeftAnkle
				{
					OFFSET 2.32677 -6.39275 0.00000
					CHANNELS 3 Zrotation Yrotation Xrotation
					JOINT LeftToe
					{
						OFFSET 0.18686 -0.51340 1.95973
						CHANNELS 3 Zrotation Yrotation Xrotation
						End Site
						{
							OFFSET 0.00000 -0.00000 1.02033
						}
					}
				}
			}
		}
	}
	JOINT RHipJoint
	{
		OFFSET 0 0 0
		CHANNELS 3 Zrotation Yrotation Xrotation
		JOINT RightHip
		{
			OFFSET -1.27392 -1.57253 0.78074
			CHANNELS 3 Zrotation Yrotation Xrotation
			JOINT RightKnee
			{
				OFFSET -2.19978 -6.04385 0.00000
				CHANNELS 3 Zrotation Yrotation Xrotation
				JOINT RightAnkle
				{
					OFFSET -2.29380 -6.30216 0.00000
					CHANNELS 3 Zrotation Yrotation Xrotation
					JOINT RightToe
					{
						OFFSET -0.24624 -0.67655 1.94854
						CHANNELS 3 Zrotation Yrotation Xrotation
						End Site
						{
							OFFSET -0.00000 -0.00000 1.03267
						}
					}
				}
			}
		}
	}
	JOINT lowerback
	{
		OFFSET 0 0 0
		CHANNELS 3 Zrotation Yrotation Xrotation
		JOINT Chest
		{
			OFFSET -0.05982 2.08655 0.02100
			CHANNELS 3 Zrotation Yrotation Xrotation
			JOINT Chest2
			{
				OFFSET 0.04735 2.08455 -0.01795
				CHANNELS 3 Zrotation Yrotation Xrotation
				JOINT lowerneck
				{
					OFFSET 0 0 0
					CHANNELS 3 Zrotation Yrotation Xrotation
					JOINT Neck
					{
						OFFSET -0.10038 1.43781 0.03084
						CHANNELS 3 Zrotation Yrotation Xrotation
						JOINT Head
						{
							OFFSET 0.07701 1.43632 -0.18495
							CHANNELS 3 Zrotation Yrotation Xrotation
							End Site
							{
								OFFSET 0.02744 1.45633 -0.07361
							}
						}
					}
				}
				JOINT LeftCollar
				{
					OFFSET 0 0 0
					CHANNELS 3 Zrotation Yrotation Xrotation
					JOINT LeftShoulder
					{
						OFFSET 2.75061 0.74389 0.25227
CHANNELS 3 Zrotation Xrotation Yrotation
						JOINT LeftElbow
						{
OFFSET 0 -4.369010 0.000000
CHANNELS 3 Zrotation Xrotation Yrotation
							JOINT LeftWrist
							{
OFFSET 0 -3.217370 -0.000000
CHANNELS 3 Zrotation Xrotation Yrotation
								JOINT lhand
								{
									OFFSET 0 0 0
CHANNELS 3 Zrotation Xrotation Yrotation
									JOINT LFingers
									{
OFFSET 0 -0.564310 0.000000
CHANNELS 3 Zrotation Xrotation Yrotation
										End Site
										{
OFFSET 0 -0.454960 0.000000
										}
									}
								}
								JOINT LThumb
								{
OFFSET 0 0.000000 0.000000
CHANNELS 3 Zrotation Xrotation Yrotation
									End Site
									{
OFFSET 0 -0.461910 0.461910
									}
								}
							}
						}
					}
				}
				JOINT RightCollar
				{
					OFFSET 0 0 0
					CHANNELS 3 Zrotation Yrotation Xrotation
					JOINT RightShoulder
					{
						OFFSET -2.97379 0.79094 0.48377
CHANNELS 3 Zrotation Xrotation Yrotation
						JOINT RightElbow
						{
OFFSET 0 -4.341180 -0.000000
CHANNELS 3 Zrotation Xrotation Yrotation
							JOINT RightWrist
							{
OFFSET 0 -3.095310 0.000000
CHANNELS 3 Zrotation Xrotation Yrotation
								JOINT rhand
								{
									OFFSET 0 0 0
CHANNELS 3 Zrotation Xrotation Yrotation
									JOINT RFingers
									{
OFFSET 0 -0.597450 0.000000
CHANNELS 3 Zrotation Xrotation Yrotation
										End Site
										{
OFFSET 0 -0.481680 0.000000
										}
									}
								}
								JOINT RThumb
								{
OFFSET 0 0.000000 0.000000
CHANNELS 3 Zrotation Xrotation Yrotation
									End Site
									{
OFFSET 0 -0.489030 0.489030
									}
								}
							}
						}
					}
				}
			}
		}
	}
}
MOTION
Frames: 7
Frame Time: 0.008333333333333333
8.256600 15.428800 6.984500 1.707000 -8.423600 6.828400 0.000000 0.000000 0.000000 -24.995300 -4.119400 -20.333100 4.956100 13.334200 40.632700 -0.357700 16.798900 -20.096900 0.499500 -4.530800 -12.575000 0.000000 0.000000 0.000000 20.662200 16.689500 -15.386300 -4.647000 -12.974900 39.274500 -2.865100 -2.077200 -32.811800 -0.126100 2.289100 -6.305200 -5.504400 -2.183300 -12.260200 2.428300 -2.302200 -0.700800 5.286700 -1.330900 6.470300 -16.564600 -15.724000 2.078500 12.113100 -21.882800 4.672500 4.958000 -10.981800 4.193800 -0.000000 -0.000000 0.000000 4.478300 5.145000 -40.371000 21.412200 -32.306400 6.268800 11.382300 -14.621300 -43.732600 0.000000 0.000000 0.000000 -7.125000 0.000000 0.000000 -40.237600 70.540700 25.854900 -0.000000 -0.000000 0.000000 -8.468200 4.215700 44.007700 -20.797800 -31.591600 -5.943700 -20.338800 -14.733600 -19.696600 0.000000 0.000000 0.000000 7.125000 0.000000 -0.000000 5.155700 9.151800 4.287900
8.261079 15.466813 6.981424 1.713029 -7.861166 6.685714 0.000000 0.000000 0.000000 -24.632307 -6.631902 -18.657472 5.069732 13.461841 41.123055 0.874574 12.116945 -25.871646 0.063171 1.616188 4.446137 0.000000 0.000000 0.000000 20.760764 16.676943 -14.658085 -4.473129 -12.764703 38.493821 -2.534146 -1.417447 -30.656013 -0.031030 -1.137188 3.126324 -5.777349 -2.263367 -12.463821 2.178623 -2.344775 -0.926311 5.164386 -1.345424 6.349256 -17.052958 -14.968930 -0.829179 13.329277 -21.517796 13.240741 4.948894 -10.618994 7.502389 0.000000 0.000000 0.000000 4.210716 4.821584 -41.872861 20.461034 -31.193395 5.768424 36.709859 11.370137 -63.388300 0.000000 0.000000 0.000000 -7.125000 0.000000 0.000000 -124.299295 -78.780195 -132.669073 0.000000 0.000000 0.000000 -8.539740 4.478996 42.597337 -18.838487 -29.217044 -4.951989 -18.266035 -11.643392 -19.552557 0.000000 0.000000 0.000000 7.125000 0.000000 0.000000 6.485846 9.578661 5.351163
8.259089 15.460063 6.935402 1.561300 -7.523112 6.613782 0.000000 0.000000 0.000000 -24.396547 -6.767616 -18.849845 5.099812 13.495309 41.251928 1.106982 11.024714 -26.675311 0.001245 -0.208883 -0.573917 0.000000 0.000000 0.000000 20.972447 16.667229 -14.675697 -4.449088 -12.735182 38.384898 -2.488420 1.183943 -29.550838 -0.109275 -2.129465 5.863558 -5.870783 -2.244699 -11.926356 2.380537 -2.349566 -0.840872 5.443906 -1.350705 6.153227 -15.657281 -14.673972 0.011771 14.567477 -21.056508 9.925994 5.358747 -10.368212 6.217798 0.000000 0.000000 0.000000 3.963898 5.656806 -41.358023 19.961054 -30.595387 5.511461 26.288786 -3.466153 -45.971473 0.000000 0.000000 0.000000 -7.125000 0.000000 0.000000 -28.834935 77.721545 22.359395 0.000000 0.000000 0.000000 -9.654345 4.821936 40.282432 -18.463948 -28.747154 -4.770284 -19.223789 -10.541956 -19.040272 0.000000 0.000000 0.000000 7.125000 0.000000 0.000000 5.835309 9.985295 4.760659
8.254405 15.473865 6.879363 1.781908 -7.409033 6.943775 0.000000 0.000000 0.000000 -24.460724 -6.957070 -19.555895 5.143357 13.543459 41.438434 1.375446 9.457105 -27.392178 0.077837 -1.794286 -4.937667 0.000000 0.000000 0.000000 20.661910 17.182256 -15.049270 -4.408442 -12.684902 38.200087 -2.344059 0.364548 -28.900037 -0.254876 -3.243286 8.957296 -5.658914 -2.286158 -11.428922 2.476087 -2.469029 -1.192521 5.417767 -1.377062 5.512652 -15.140662 -14.750995 -0.896333 13.089825 -20.691167 8.702893 4.852926 -10.204369 5.710230 0.000000 0.000000 0.000000 4.544992 6.679413 -41.482535 17.908372 -28.038454 4.506711 37.868942 13.514377 -64.630981 0.000000 0.000000 0.000000 -7.125000 0.000000 0.000000 -137.960138 -78.435014 -146.319014 0.000000 0.000000 0.000000 -9.315625 4.606028 35.203772 -16.726694 -26.495741 -3.964841 -21.412561 -10.234443 -19.128083 0.000000 0.000000 0.000000 7.125000 0.000000 0.000000 4.419965 9.595835 3.632411
8.242001 15.470226 6.840797 2.060601 -7.495657 6.887157 0.000000 0.000000 0.000000 -24.684304 -6.777579 -19.716690 5.118319 13.515875 41.331491 1.704230 8.932966 -29.273990 0.659522 -5.189944 -14.451925 0.000000 0.000000 0.000000 20.322567 17.159757 -15.261241 -4.429483 -12.711024 38.296023 -2.498243 0.464236 -29.817605 -0.262029 -3.288281 9.082905 -5.616674 -2.177360 -11.136371 2.433900 -2.342453 -1.177793 5.376039 -1.308517 5.343678 -15.335951 -14.505461 -1.157695 12.954329 -20.309191 8.891769 4.864951 -10.016712 5.763124 0.000000 0.000000 0.000000 4.764655 6.450327 -37.701628 16.011701 -25.536564 3.651083 25.419231 0.118168 -48.119154 0.000000 0.000000 0.000000 -7.125000 0.000000 0.000000 -37.618202 78.894045 30.296324 0.000000 0.000000 0.000000 -9.262706 4.937515 33.189898 -16.593132 -26.318283 -3.905246 -21.378227 -9.896548 -20.630200 0.000000 0.000000 0.000000 7.125000 0.000000 0.000000 4.559280 8.023834 3.890904
8.213947 15.457443 6.829937 2.074842 -6.999047 7.193409 0.000000 0.000000 0.000000 -24.464838 -7.221464 -20.202637 5.206548 13.612645 41.707414 1.759378 9.251124 -29.849580 0.963249 -6.248955 -17.508608 0.000000 0.000000 0.000000 20.383200 17.744812 -14.980729 -4.330757 -12.588045 37.845284 -3.434041 -3.864353 -36.535573 -0.262189 3.269521 -9.032438 -5.492659 -2.220204 -11.365456 2.511788 -2.409200 -1.401715 5.374486 -1.330705 5.241684 -15.235594 -14.401143 -1.768470 11.383900 -20.025902 10.435047 4.333127 -9.906521 6.127961 0.000000 0.000000 0.000000 5.203784 7.014507 -35.600030 16.489027 -26.179105 3.859307 27.081008 -0.302647 -47.599021 0.000000 0.000000 0.000000 -7.125000 0.000000 0.000000 -33.569572 79.247882 27.150775 0.000000 0.000000 0.000000 -9.131627 6.132520 33.134196 -17.552265 -27.580001 -4.340011 -21.712823 -11.256307 -21.255947 0.000000 0.000000 0.000000 7.125000 0.000000 0.000000 4.399335 7.316096 3.814893
8.163175 15.455560 6.887778 2.821533 -5.782121 6.965211 0.000000 0.000000 0.000000 -25.071211 -7.278626 -19.599930 5.121684 13.519556 41.345885 1.734975 8.087175 -28.918943 0.567093 -4.821434 -13.400324 0.000000 0.000000 0.000000 20.037452 17.342718 -14.910182 -4.433779 -12.716258 38.315565 -2.583586 -1.815342 -31.094229 -1.045963 -6.503265 18.251968 -6.107784 -2.372927 -11.994382 2.305643 -2.486276 -1.428353 5.478988 -1.388574 5.591088 -15.014237 -13.952200 -2.336901 10.015430 -19.301845 12.176986 3.903704 -9.588780 6.514667 0.000000 0.000000 0.000000 5.373896 6.834363 -34.712713 17.137559 -27.038726 4.149714 26.017088 -0.136735 -47.650164 0.000000 0.000000 0.000000 -7.125000 0.000000 0.000000 -35.071100 78.832905 28.128135 0.000000 0.000000 0.000000 -8.683505 7.368700 33.228949 -17.994630 -28.150294 -4.546752 -20.361865 -10.692535 -18.822909 0.000000 0.000000 0.000000 7.125000 0.000000 0.000000 5.081317 10.061180 4.132345
